<?xml version="1.0" encoding="UTF-8" standalone="no"?>
<!DOCTYPE svg PUBLIC "-//W3C//DTD SVG 1.1//EN" "http://www.w3.org/Graphics/SVG/1.1/DTD/svg11.dtd">
<svg width="100%" height="100%" viewBox="0 0 495 420" version="1.1" xmlns="http://www.w3.org/2000/svg" xmlns:xlink="http://www.w3.org/1999/xlink" xml:space="preserve" xmlns:serif="http://www.serif.com/" style="fill-rule:evenodd;clip-rule:evenodd;stroke-linejoin:round;stroke-miterlimit:2;">
    <g transform="matrix(0.579,0,0,0.71276,-390.433,-227.105)">
        <rect x="871.213" y="492.485" width="96.178" height="247.456"/>
    </g>
    <g transform="matrix(0.579,0,0,0.71276,-320.187,-227.105)">
        <rect x="871.213" y="492.485" width="96.178" height="247.456"/>
    </g>
    <g transform="matrix(0.579,0,0,0.71276,-249.94,-227.105)">
        <rect x="871.213" y="492.485" width="96.178" height="247.456"/>
    </g>
    <g transform="matrix(0.579,0,0,0.71276,-179.694,-227.105)">
        <rect x="871.213" y="492.485" width="96.178" height="247.456"/>
    </g>
    <g transform="matrix(0.559271,-0.149856,0.184476,0.688473,-578.096,-76.4829)">
        <rect x="871.213" y="492.485" width="96.178" height="247.456"/>
    </g>
    <g transform="matrix(0.559271,-0.149856,0.184476,0.688473,-183.111,-76.4829)">
        <rect x="871.213" y="492.485" width="96.178" height="247.456"/>
    </g>
    <g transform="matrix(1,0,0,1,-177.451,-1.33227e-15)">
        <path d="M581.706,320L588.327,327.634C591.988,331.508 592.152,337.584 588.704,341.649L581.162,350.721C577.73,354.783 571.745,355.662 567.29,352.759L544.468,339.101C542.403,337.863 539.754,338.121 537.965,339.733C535.438,341.996 532.9,344.034 530.423,346.073C528.547,347.594 527.85,350.162 528.7,352.423L538.118,377.232C540.254,382.128 538.351,387.912 533.725,390.584L523.461,396.526C518.852,399.183 512.915,397.937 509.762,393.652L492.69,372.625C491.803,371.524 490.274,370.199 487.114,371.289L486.503,371.524C484.087,372.461 481.335,373.522 477.421,374.836C475.135,375.58 473.583,377.732 473.599,380.137L474.007,406.8C474.262,412.109 470.509,416.839 465.282,417.798L453.591,419.837C452.992,419.947 452.385,420.001 451.776,420C447.103,419.991 442.953,416.916 441.584,412.447L432.951,387.302C432.151,385.024 429.962,383.508 427.548,383.561L417.611,383.561C415.176,383.465 412.95,384.982 412.147,387.282L403.484,412.529C401.901,417.603 396.744,420.751 391.507,419.837L379.837,417.798C374.579,416.823 370.818,412.049 371.102,406.709L371.509,380.157C371.536,377.743 369.982,375.576 367.687,374.826C363.478,373.42 361.103,372.594 357.556,371.126C355.894,370.454 353.652,371.238 352.225,373.002L335.356,393.744C332.202,398.035 326.258,399.281 321.647,396.618L311.342,390.666C306.732,387.996 304.832,382.232 306.949,377.344L316.398,352.474C317.245,350.211 316.53,347.643 314.634,346.144C312.219,344.177 309.65,342.047 307.122,339.835C305.335,338.214 302.679,337.953 300.609,339.193L277.808,352.881C273.378,355.842 267.355,354.955 263.967,350.843L256.414,341.761C253.036,337.643 253.256,331.588 256.924,327.726L263.614,320L383.758,320L383.272,320.846C381.848,323.302 381.098,326.09 381.098,328.929C381.098,336.448 386.36,343.016 393.699,344.656C403.182,346.691 412.855,347.716 422.554,347.714C453.546,347.714 482.158,337.39 505.164,320L581.706,320ZM427.283,36.471C429.717,36.563 431.941,35.048 432.747,32.751L441.41,7.463C443,2.394 448.152,-0.75 453.387,0.155L465.057,2.193C470.32,3.16 474.085,7.94 473.793,13.283L473.395,39.855C473.361,42.268 474.912,44.438 477.207,45.186C481.294,46.552 486.554,48.702 487.175,48.957C489.244,49.813 491.652,49.074 492.883,47.204L509.548,26.268C512.699,21.974 518.643,20.723 523.257,23.384L533.542,29.387C538.152,32.057 540.052,37.821 537.935,42.709L528.496,67.579C527.64,69.839 528.352,72.411 530.25,73.909C532.665,75.876 535.244,78.006 537.762,80.218C539.549,81.838 542.205,82.1 544.275,80.86L567.076,67.171C571.507,64.215 577.526,65.102 580.917,69.21L588.48,78.291C591.878,82.382 591.707,88.425 588.083,92.317L581.432,100L505.152,100C482.152,82.609 453.542,72.288 422.554,72.288C413.07,72.284 403.611,73.268 394.331,75.223C386.973,76.847 381.689,83.425 381.689,90.959C381.689,93.771 382.424,96.533 383.822,98.972L384.406,100L263.622,100L256.791,92.153C253.13,88.28 252.967,82.203 256.414,78.139L263.946,69.077C267.38,65.019 273.362,64.14 277.818,67.039L300.354,80.993C302.416,82.213 305.05,81.948 306.827,80.34C309.355,78.077 311.893,76.039 314.369,74C316.244,72.478 316.943,69.914 316.102,67.65L306.674,42.841C304.503,37.924 306.415,32.094 311.077,29.418L321.331,23.475C325.962,20.821 331.917,22.1 335.05,26.421L351.623,46.806C353.417,48.875 355.639,49.681 357.678,48.947C359.981,48.091 365.047,46.154 367.381,45.247C369.725,44.532 371.332,42.346 371.316,39.896L370.908,13.232C370.653,7.923 374.405,3.193 379.633,2.234L391.324,0.195C396.588,-0.707 401.758,2.478 403.321,7.585L411.944,32.73C412.746,35.006 414.932,36.52 417.346,36.471L427.283,36.471Z" style="fill-rule:nonzero;"/>
    </g>
</svg>
